<svg data-v-423bf9ae="" xmlns="http://www.w3.org/2000/svg" viewBox="0 0 380 105" class="iconLeft"><!----><!----><!----><g data-v-423bf9ae="" id="7dc5b344-f9b6-442b-8a74-00a765f4f30e" fill="#242038" transform="matrix(6.666666666666667,0,0,6.666666666666667,101.02666541934013,-17.178667386372894)"><path d="M2.55 10.39L0.32 7.25L0.32 7.25Q0.39 7.06 0.52 6.86L0.52 6.86L0.52 6.86Q0.64 6.66 0.83 6.50L0.83 6.50L0.83 6.50Q1.02 6.34 1.27 6.24L1.27 6.24L1.27 6.24Q1.53 6.13 1.83 6.13L1.83 6.13L1.83 6.13Q2.24 6.13 2.55 6.34L2.55 6.34L2.55 6.34Q2.86 6.54 3.18 7.03L3.18 7.03L4.27 8.69L5.88 6.31L5.88 6.31Q5.99 6.26 6.20 6.21L6.20 6.21L6.20 6.21Q6.40 6.16 6.59 6.16L6.59 6.16L6.59 6.16Q7.24 6.16 7.60 6.47L7.60 6.47L7.60 6.47Q7.97 6.78 7.97 7.22L7.97 7.22L7.97 7.22Q7.97 7.62 7.76 7.92L7.76 7.92L7.76 7.92Q7.56 8.23 7.21 8.67L7.21 8.67L5.77 10.43L8.05 13.69L8.05 13.69Q7.94 14.21 7.57 14.51L7.57 14.51L7.57 14.51Q7.20 14.81 6.57 14.81L6.57 14.81L6.57 14.81Q6.16 14.81 5.87 14.61L5.87 14.61L5.87 14.61Q5.57 14.41 5.26 13.92L5.26 13.92L4.13 12.12L2.37 14.78L2.37 14.78Q2.25 14.80 2.16 14.81L2.16 14.81L2.16 14.81Q2.06 14.81 1.96 14.81L1.96 14.81L1.96 14.81Q1.16 14.81 0.78 14.49L0.78 14.49L0.78 14.49Q0.41 14.17 0.41 13.69L0.41 13.69L0.41 13.69Q0.41 13.29 0.58 12.99L0.58 12.99L0.58 12.99Q0.76 12.68 1.08 12.28L1.08 12.28L2.55 10.39ZM11.03 8.18L8.93 8.18L8.93 8.18Q8.83 8.02 8.75 7.76L8.75 7.76L8.75 7.76Q8.67 7.49 8.67 7.20L8.67 7.20L8.67 7.20Q8.67 6.65 8.91 6.41L8.91 6.41L8.91 6.41Q9.16 6.17 9.55 6.17L9.55 6.17L15.65 6.17L15.65 6.17Q15.75 6.33 15.83 6.59L15.83 6.59L15.83 6.59Q15.92 6.86 15.92 7.15L15.92 7.15L15.92 7.15Q15.92 7.70 15.67 7.94L15.67 7.94L15.67 7.94Q15.43 8.18 15.04 8.18L15.04 8.18L13.48 8.18L13.48 14.64L13.48 14.64Q13.33 14.69 13.00 14.73L13.00 14.73L13.00 14.73Q12.67 14.77 12.35 14.77L12.35 14.77L12.35 14.77Q12.03 14.77 11.78 14.72L11.78 14.72L11.78 14.72Q11.54 14.67 11.37 14.55L11.37 14.55L11.37 14.55Q11.20 14.42 11.12 14.20L11.12 14.20L11.12 14.20Q11.03 13.97 11.03 13.61L11.03 13.61L11.03 8.18ZM16.69 10.44L16.69 10.44L16.69 10.44Q16.69 9.35 17.03 8.51L17.03 8.51L17.03 8.51Q17.37 7.67 17.97 7.11L17.97 7.11L17.97 7.11Q18.56 6.54 19.37 6.24L19.37 6.24L19.37 6.24Q20.17 5.95 21.11 5.95L21.11 5.95L21.11 5.95Q22.05 5.95 22.86 6.24L22.86 6.24L22.86 6.24Q23.66 6.54 24.26 7.11L24.26 7.11L24.26 7.11Q24.86 7.67 25.21 8.51L25.21 8.51L25.21 8.51Q25.55 9.35 25.55 10.44L25.55 10.44L25.55 10.44Q25.55 11.54 25.21 12.38L25.21 12.38L25.21 12.38Q24.88 13.23 24.28 13.80L24.28 13.80L24.28 13.80Q23.69 14.36 22.88 14.66L22.88 14.66L22.88 14.66Q22.06 14.95 21.11 14.95L21.11 14.95L21.11 14.95Q20.16 14.95 19.35 14.65L19.35 14.65L19.35 14.65Q18.54 14.35 17.95 13.78L17.95 13.78L17.95 13.78Q17.36 13.20 17.02 12.36L17.02 12.36L17.02 12.36Q16.69 11.52 16.69 10.44ZM19.21 10.44L19.21 10.44L19.21 10.44Q19.21 11.72 19.73 12.35L19.73 12.35L19.73 12.35Q20.24 12.98 21.11 12.98L21.11 12.98L21.11 12.98Q21.99 12.98 22.51 12.35L22.51 12.35L22.51 12.35Q23.03 11.72 23.03 10.44L23.03 10.44L23.03 10.44Q23.03 9.18 22.52 8.55L22.52 8.55L22.52 8.55Q22.01 7.92 21.13 7.92L21.13 7.92L21.13 7.92Q20.26 7.92 19.73 8.55L19.73 8.55L19.73 8.55Q19.21 9.17 19.21 10.44ZM30.13 11.96L29.39 11.96L29.39 14.64L29.39 14.64Q29.23 14.69 28.90 14.73L28.90 14.73L28.90 14.73Q28.57 14.77 28.25 14.77L28.25 14.77L28.25 14.77Q27.93 14.77 27.68 14.72L27.68 14.72L27.68 14.72Q27.44 14.67 27.28 14.55L27.28 14.55L27.28 14.55Q27.12 14.42 27.03 14.20L27.03 14.20L27.03 14.20Q26.95 13.97 26.95 13.61L26.95 13.61L26.95 7.01L26.95 7.01Q26.95 6.72 27.11 6.56L27.11 6.56L27.11 6.56Q27.27 6.40 27.55 6.30L27.55 6.30L27.55 6.30Q28.03 6.13 28.66 6.06L28.66 6.06L28.66 6.06Q29.29 5.98 30.00 5.98L30.00 5.98L30.00 5.98Q31.93 5.98 32.91 6.79L32.91 6.79L32.91 6.79Q33.89 7.60 33.89 8.99L33.89 8.99L33.89 8.99Q33.89 9.86 33.45 10.47L33.45 10.47L33.45 10.47Q33.00 11.09 32.38 11.42L32.38 11.42L32.38 11.42Q32.89 12.11 33.38 12.71L33.38 12.71L33.38 12.71Q33.87 13.31 34.15 13.80L34.15 13.80L34.15 13.80Q34.01 14.29 33.63 14.55L33.63 14.55L33.63 14.55Q33.26 14.81 32.80 14.81L32.80 14.81L32.80 14.81Q32.49 14.81 32.27 14.74L32.27 14.74L32.27 14.74Q32.05 14.67 31.88 14.55L31.88 14.55L31.88 14.55Q31.71 14.42 31.57 14.24L31.57 14.24L31.57 14.24Q31.43 14.06 31.30 13.85L31.30 13.85L30.13 11.96ZM29.37 10.09L30.27 10.09L30.27 10.09Q30.80 10.09 31.11 9.82L31.11 9.82L31.11 9.82Q31.42 9.55 31.42 9.02L31.42 9.02L31.42 9.02Q31.42 8.48 31.07 8.21L31.07 8.21L31.07 8.21Q30.73 7.94 29.99 7.94L29.99 7.94L29.99 7.94Q29.78 7.94 29.65 7.95L29.65 7.95L29.65 7.95Q29.53 7.97 29.37 7.99L29.37 7.99L29.37 10.09ZM35.48 13.44L35.48 7.52L35.48 7.52Q35.48 6.92 35.83 6.57L35.83 6.57L35.83 6.57Q36.18 6.22 36.78 6.22L36.78 6.22L41.40 6.22L41.40 6.22Q41.50 6.37 41.57 6.62L41.57 6.62L41.57 6.62Q41.65 6.87 41.65 7.15L41.65 7.15L41.65 7.15Q41.65 7.69 41.42 7.91L41.42 7.91L41.42 7.91Q41.19 8.13 40.81 8.13L40.81 8.13L37.86 8.13L37.86 9.44L41.01 9.44L41.01 9.44Q41.10 9.59 41.18 9.84L41.18 9.84L41.18 9.84Q41.26 10.08 41.26 10.36L41.26 10.36L41.26 10.36Q41.26 10.89 41.03 11.12L41.03 11.12L41.03 11.12Q40.81 11.34 40.43 11.34L40.43 11.34L37.86 11.34L37.86 12.81L41.45 12.81L41.45 12.81Q41.55 12.96 41.63 13.22L41.63 13.22L41.63 13.22Q41.71 13.47 41.71 13.75L41.71 13.75L41.71 13.75Q41.71 14.28 41.48 14.51L41.48 14.51L41.48 14.51Q41.24 14.74 40.87 14.74L40.87 14.74L36.78 14.74L36.78 14.74Q36.18 14.74 35.83 14.39L35.83 14.39L35.83 14.39Q35.48 14.04 35.48 13.44L35.48 13.44Z"></path></g><defs data-v-423bf9ae=""><linearGradient data-v-423bf9ae="" gradientTransform="rotate(25)" id="c56f9ce2-6dc2-4376-abc1-b01443ef5441" x1="0%" y1="0%" x2="100%" y2="0%"><stop data-v-423bf9ae="" offset="0%" style="stop-color: rgb(114, 90, 193); stop-opacity: 1;"></stop><stop data-v-423bf9ae="" offset="100%" style="stop-color: rgb(164, 12, 210); stop-opacity: 1;"></stop></linearGradient></defs><g data-v-423bf9ae="" id="be5a4ad5-aaaa-46cd-9a91-bd7e648df44c" transform="matrix(1.0799999660915798,0,0,1.0799999660915798,-11.499998304578988,-0.5999966547224744)" stroke="none" fill="url(#c56f9ce2-6dc2-4376-abc1-b01443ef5441)"><path d="M50 1.4c-10 0-18.1 8.1-18.1 18.1V21H18.2c-.5 0-1 .4-1 .9L11.5 87c0 6.4 6 11.6 13.3 11.6h50.4c7.4 0 13.3-5.2 13.3-11.7l-5.8-65c0-.5-.5-.9-1-.9H68.1v-1.5C68.1 9.5 60 1.4 50 1.4zM33.9 19.5c0-8.9 7.2-16.1 16.1-16.1s16.1 7.2 16.1 16.1V21H33.9v-1.5zm47 3.5l5.7 64c0 5.3-5.1 9.6-11.3 9.6H24.8c-6.3 0-11.3-4.3-11.3-9.5L19.1 23h12.7v10.2c0 .6.4 1 1 1s1-.4 1-1V23h32.3v10.2c0 .6.4 1 1 1s1-.4 1-1V23h12.8zM62.8 52.8c.4.4.4 1 0 1.4L46.4 70.6c-.2.2-.5.3-.7.3s-.5-.1-.7-.3l-7.8-7.8c-.4-.4-.4-1 0-1.4s1-.4 1.4 0l7.1 7.1 15.7-15.7c.4-.4 1-.4 1.4 0z"></path></g><!----></svg>